<?xml version="1.0" encoding="utf-8"?>
<!-- Generator: Adobe Illustrator 26.0.0, SVG Export Plug-In . SVG Version: 6.00 Build 0)  -->
<svg version="1.1" id="Layer_1" xmlns="http://www.w3.org/2000/svg" xmlns:xlink="http://www.w3.org/1999/xlink" x="0px" y="0px"
	 viewBox="0 0 256.6 158.2" style="enable-background:new 0 0 256.6 158.2;" xml:space="preserve">
<style type="text/css">
	.st0{opacity:0.31;fill:#FFFFFF;}
	.st1{opacity:0.22;fill:#FFFFFF;}
	.st2{fill:none;}
	.st3{clip-path:url(#SVGID_00000183251151378107911690000000016523073645323689_);}
	.st4{clip-path:url(#SVGID_00000183971177909239068270000012383929099005037981_);}
	.st5{fill:#7F7F7F;}
	.st6{clip-path:url(#SVGID_00000003087737843181087130000011895718094350426765_);}
	.st7{clip-path:url(#SVGID_00000159449382927709922830000016923545658140121241_);}
	.st8{clip-path:url(#SVGID_00000065052401462647511510000002365106950043971464_);}
	.st9{clip-path:url(#SVGID_00000145016154096549494010000006821363865647847347_);}
	.st10{clip-path:url(#SVGID_00000051373047995689784360000016688231430989411219_);}
	.st11{clip-path:url(#SVGID_00000181053487688143593790000006173167307139476386_);}
	.st12{clip-path:url(#SVGID_00000109737538776717290590000004816213600489669819_);}
	.st13{clip-path:url(#SVGID_00000060726534358423284200000002509659468534371237_);}
	.st14{clip-path:url(#SVGID_00000036934890847711801170000011859819049675251125_);}
	.st15{clip-path:url(#SVGID_00000141424338489897422010000014225036781785259913_);}
	.st16{clip-path:url(#SVGID_00000011006537897058807560000014127062575376765068_);}
	.st17{clip-path:url(#SVGID_00000172418027978958595670000002394137238894208684_);}
	.st18{clip-path:url(#SVGID_00000160152700856170182460000014736609093961154978_);}
	.st19{clip-path:url(#SVGID_00000172439149698473971490000010516507070798789792_);}
	.st20{clip-path:url(#SVGID_00000137108950606726287960000001112560507650285211_);}
	.st21{clip-path:url(#SVGID_00000138565574244441343610000003863575182707222664_);}
	.st22{clip-path:url(#SVGID_00000115486661438256600350000010285246020044115134_);}
	.st23{clip-path:url(#SVGID_00000074435768821916598660000004165724537444994179_);}
	.st24{clip-path:url(#SVGID_00000159447603493411478150000001826447605652159402_);}
	.st25{clip-path:url(#SVGID_00000142139730565177596960000002721031728165491118_);}
	.st26{clip-path:url(#SVGID_00000096744197683338996730000013239190091142081924_);}
	.st27{clip-path:url(#SVGID_00000158027036789205349610000010418095619865553597_);}
	.st28{clip-path:url(#SVGID_00000069390858025115647790000015365638681164966036_);}
	.st29{clip-path:url(#SVGID_00000069366324971391833320000012686949203700754050_);}
	.st30{clip-path:url(#SVGID_00000038401771160341994450000016942089942380296857_);}
	.st31{clip-path:url(#SVGID_00000119092460490653629690000001383226238098122415_);}
	.st32{clip-path:url(#SVGID_00000129894081076678154840000017764952425605713798_);}
	.st33{clip-path:url(#SVGID_00000094601109715840500580000000859264243372593539_);}
</style>
<path class="st0" d="M249.2,146.7H8c-4.4,0-8-3.6-8-8V8.4c0-4.4,3.6-8,8-8h241.2c4.4,0,8,3.6,8,8v130.2
	C257.3,143.1,253.7,146.7,249.2,146.7z"/>
<g>
	<g>
		<path d="M7.9,11.4V3.1h3.2c0.6,0,1.2,0.1,1.6,0.4c0.4,0.2,0.8,0.6,1,1s0.3,0.9,0.3,1.5c0,0.5-0.1,1-0.4,1.5c-0.2,0.4-0.6,0.7-1,1
			c-0.4,0.2-1,0.4-1.6,0.4H9.1V7.3h1.8c0.3,0,0.6-0.1,0.8-0.2c0.2-0.1,0.4-0.3,0.5-0.5c0.1-0.2,0.2-0.4,0.2-0.7
			c0-0.3-0.1-0.5-0.2-0.7c-0.1-0.2-0.3-0.4-0.5-0.5s-0.5-0.2-0.8-0.2H9.7v6.8H7.9z"/>
		<path d="M20.7,5.8c-0.1-0.2-0.1-0.4-0.2-0.5c-0.1-0.2-0.2-0.3-0.4-0.4c-0.1-0.1-0.3-0.2-0.5-0.2c-0.2-0.1-0.4-0.1-0.6-0.1
			c-0.4,0-0.8,0.1-1.1,0.3c-0.3,0.2-0.6,0.5-0.7,0.9c-0.2,0.4-0.3,0.9-0.3,1.5c0,0.6,0.1,1.1,0.3,1.5c0.2,0.4,0.4,0.7,0.7,0.9
			c0.3,0.2,0.7,0.3,1.1,0.3c0.4,0,0.7-0.1,1-0.2c0.3-0.1,0.5-0.3,0.6-0.6c0.1-0.3,0.2-0.6,0.2-0.9l0.4,0.1h-2.1V6.9h3.4v1
			c0,0.7-0.2,1.3-0.5,1.9c-0.3,0.5-0.7,0.9-1.3,1.2c-0.5,0.3-1.1,0.4-1.8,0.4c-0.8,0-1.4-0.2-2-0.5c-0.6-0.3-1-0.8-1.4-1.5
			s-0.5-1.4-0.5-2.3c0-0.7,0.1-1.3,0.3-1.8c0.2-0.5,0.5-1,0.8-1.3c0.4-0.4,0.8-0.6,1.2-0.8S18.4,3,19,3c0.5,0,0.9,0.1,1.3,0.2
			c0.4,0.1,0.8,0.3,1.1,0.6c0.3,0.2,0.6,0.5,0.8,0.9s0.3,0.7,0.4,1.1H20.7z"/>
		<path d="M26.5,11.4V3.1h1.7v3.6h0.1l3-3.6h2.1l-3.1,3.7l3.1,4.6h-2.1L29.1,8l-0.9,1v2.3H26.5z"/>
		<path d="M41.9,7.2c0,0.9-0.2,1.7-0.5,2.3C41,10.2,40.5,10.6,40,11c-0.6,0.3-1.2,0.5-2,0.5c-0.7,0-1.4-0.2-2-0.5
			c-0.6-0.3-1-0.8-1.4-1.4s-0.5-1.4-0.5-2.3c0-0.9,0.2-1.7,0.5-2.3s0.8-1.1,1.4-1.4C36.6,3.2,37.3,3,38,3c0.7,0,1.4,0.2,2,0.5
			c0.6,0.3,1,0.8,1.4,1.4C41.7,5.6,41.9,6.3,41.9,7.2z M40.1,7.2c0-0.6-0.1-1.1-0.3-1.5c-0.2-0.4-0.4-0.7-0.7-0.9S38.4,4.5,38,4.5
			c-0.4,0-0.8,0.1-1.1,0.3s-0.6,0.5-0.7,0.9c-0.2,0.4-0.3,0.9-0.3,1.5s0.1,1.1,0.3,1.5c0.2,0.4,0.4,0.7,0.7,0.9s0.7,0.3,1.1,0.3
			c0.4,0,0.8-0.1,1.1-0.3s0.6-0.5,0.7-0.9C40,8.3,40.1,7.8,40.1,7.2z"/>
		<path d="M50,3.1v8.3h-1.5l-3.6-5.2h-0.1v5.2h-1.7V3.1h1.5l3.6,5.2h0.1V3.1H50z"/>
		<path d="M58.7,6H57c0-0.2-0.1-0.4-0.2-0.6S56.5,5,56.4,4.9c-0.2-0.1-0.3-0.2-0.5-0.3c-0.2-0.1-0.4-0.1-0.7-0.1
			c-0.4,0-0.8,0.1-1.1,0.3c-0.3,0.2-0.6,0.5-0.7,0.9c-0.2,0.4-0.3,0.9-0.3,1.5c0,0.6,0.1,1.1,0.3,1.5c0.2,0.4,0.4,0.7,0.7,0.9
			c0.3,0.2,0.7,0.3,1.1,0.3c0.2,0,0.4,0,0.6-0.1c0.2-0.1,0.4-0.2,0.5-0.3s0.3-0.3,0.4-0.4C56.9,9,56.9,8.8,57,8.5l1.8,0
			c0,0.4-0.2,0.7-0.3,1.1c-0.2,0.4-0.4,0.7-0.7,0.9c-0.3,0.3-0.7,0.5-1.1,0.7c-0.4,0.2-0.9,0.2-1.4,0.2c-0.7,0-1.4-0.2-2-0.5
			c-0.6-0.3-1-0.8-1.4-1.4c-0.3-0.6-0.5-1.4-0.5-2.3c0-0.9,0.2-1.7,0.5-2.3s0.8-1.1,1.4-1.4s1.2-0.5,2-0.5c0.5,0,0.9,0.1,1.3,0.2
			c0.4,0.1,0.8,0.3,1.1,0.6c0.3,0.3,0.6,0.6,0.8,0.9C58.5,5.1,58.7,5.5,58.7,6z"/>
		<path d="M60,11.4V3.1h5.5v1.4h-3.8v2h3.5v1.4h-3.5v2h3.8v1.4H60z"/>
		<path d="M73.8,3.1v8.3h-1.5l-3.6-5.2h-0.1v5.2h-1.7V3.1h1.5L72,8.3h0.1V3.1H73.8z"/>
		<path d="M74.9,4.5V3.1h6.8v1.4h-2.5v6.8h-1.7V4.5H74.9z"/>
		<path d="M82.8,11.4V3.1H86c0.6,0,1.2,0.1,1.6,0.3s0.8,0.5,1,0.9C88.9,4.8,89,5.2,89,5.8c0,0.5-0.1,1-0.4,1.4
			c-0.2,0.4-0.6,0.7-1,0.9c-0.4,0.2-1,0.3-1.6,0.3h-2.2V7h1.9c0.3,0,0.6,0,0.8-0.1c0.2-0.1,0.4-0.2,0.5-0.4c0.1-0.2,0.2-0.4,0.2-0.7
			c0-0.3-0.1-0.5-0.2-0.7c-0.1-0.2-0.3-0.3-0.5-0.4S86,4.5,85.7,4.5h-1.2v6.8H82.8z M87.2,7.6l2,3.8h-1.9l-2-3.8H87.2z"/>
		<path d="M91.6,11.4h-1.9l2.8-8.3h2.2l2.8,8.3h-1.9L93.8,5h-0.1L91.6,11.4z M91.5,8.1h4.4v1.4h-4.4V8.1z"/>
		<path d="M105.9,6h-1.8c0-0.2-0.1-0.4-0.2-0.6s-0.2-0.3-0.4-0.5c-0.2-0.1-0.3-0.2-0.5-0.3c-0.2-0.1-0.4-0.1-0.7-0.1
			c-0.4,0-0.8,0.1-1.1,0.3c-0.3,0.2-0.6,0.5-0.7,0.9c-0.2,0.4-0.3,0.9-0.3,1.5c0,0.6,0.1,1.1,0.3,1.5c0.2,0.4,0.4,0.7,0.7,0.9
			c0.3,0.2,0.7,0.3,1.1,0.3c0.2,0,0.4,0,0.6-0.1c0.2-0.1,0.4-0.2,0.5-0.3s0.3-0.3,0.4-0.4c0.1-0.2,0.2-0.4,0.2-0.6l1.8,0
			c0,0.4-0.2,0.7-0.3,1.1c-0.2,0.4-0.4,0.7-0.7,0.9c-0.3,0.3-0.7,0.5-1.1,0.7c-0.4,0.2-0.9,0.2-1.4,0.2c-0.7,0-1.4-0.2-2-0.5
			c-0.6-0.3-1-0.8-1.4-1.4c-0.3-0.6-0.5-1.4-0.5-2.3c0-0.9,0.2-1.7,0.5-2.3s0.8-1.1,1.4-1.4s1.2-0.5,2-0.5c0.5,0,0.9,0.1,1.3,0.2
			c0.4,0.1,0.8,0.3,1.1,0.6c0.3,0.3,0.6,0.6,0.8,0.9C105.8,5.1,105.9,5.5,105.9,6z"/>
		<path d="M108.9,3.1v8.3h-1.7V3.1H108.9z"/>
		<path d="M113.7,3.1h1.7v5.8c0,0.5-0.1,1-0.4,1.4c-0.2,0.4-0.6,0.7-1,0.9c-0.4,0.2-0.9,0.3-1.5,0.3c-0.5,0-0.9-0.1-1.3-0.3
			c-0.4-0.2-0.7-0.4-1-0.8c-0.2-0.4-0.4-0.8-0.3-1.4h1.7c0,0.2,0.1,0.4,0.1,0.6c0.1,0.2,0.2,0.3,0.3,0.4c0.1,0.1,0.3,0.1,0.5,0.1
			c0.2,0,0.4,0,0.5-0.1c0.1-0.1,0.3-0.2,0.3-0.4s0.1-0.4,0.1-0.7V3.1z"/>
		<path d="M118.2,11.4h-1.9l2.8-8.3h2.2l2.8,8.3h-1.9L120.4,5h-0.1L118.2,11.4z M118.1,8.1h4.4v1.4h-4.4V8.1z"/>
	</g>
</g>
<g>
	<g>
		<path d="M136.1,3.1l2,6.3h0.1l2-6.3h1.9l-2.8,8.3H137l-2.8-8.3H136.1z"/>
		<path d="M148.5,5.8c-0.1-0.2-0.1-0.4-0.2-0.5c-0.1-0.2-0.2-0.3-0.4-0.4c-0.1-0.1-0.3-0.2-0.5-0.2c-0.2-0.1-0.4-0.1-0.6-0.1
			c-0.4,0-0.8,0.1-1.1,0.3c-0.3,0.2-0.6,0.5-0.7,0.9c-0.2,0.4-0.3,0.9-0.3,1.5c0,0.6,0.1,1.1,0.3,1.5c0.2,0.4,0.4,0.7,0.7,0.9
			c0.3,0.2,0.7,0.3,1.1,0.3c0.4,0,0.7-0.1,1-0.2c0.3-0.1,0.5-0.3,0.6-0.6c0.1-0.3,0.2-0.6,0.2-0.9l0.4,0.1h-2.1V6.9h3.4v1
			c0,0.7-0.2,1.3-0.5,1.9c-0.3,0.5-0.7,0.9-1.3,1.2c-0.5,0.3-1.1,0.4-1.8,0.4c-0.8,0-1.4-0.2-2-0.5c-0.6-0.3-1-0.8-1.4-1.5
			c-0.3-0.6-0.5-1.4-0.5-2.3c0-0.7,0.1-1.3,0.3-1.8c0.2-0.5,0.5-1,0.8-1.3c0.4-0.4,0.8-0.6,1.2-0.8c0.5-0.2,1-0.3,1.5-0.3
			c0.5,0,0.9,0.1,1.3,0.2c0.4,0.1,0.8,0.3,1.1,0.6c0.3,0.2,0.6,0.5,0.8,0.9s0.3,0.7,0.4,1.1H148.5z"/>
		<path d="M154.3,11.4V3.1h1.7v3.6h0.1l3-3.6h2.1l-3.1,3.7l3.1,4.6h-2.1L156.9,8L156,9v2.3H154.3z"/>
		<path d="M169.7,7.2c0,0.9-0.2,1.7-0.5,2.3c-0.3,0.6-0.8,1.1-1.4,1.4c-0.6,0.3-1.2,0.5-2,0.5c-0.7,0-1.4-0.2-2-0.5
			c-0.6-0.3-1-0.8-1.4-1.4c-0.3-0.6-0.5-1.4-0.5-2.3c0-0.9,0.2-1.7,0.5-2.3c0.3-0.6,0.8-1.1,1.4-1.4c0.6-0.3,1.2-0.5,2-0.5
			c0.7,0,1.4,0.2,2,0.5c0.6,0.3,1,0.8,1.4,1.4C169.5,5.6,169.7,6.3,169.7,7.2z M167.9,7.2c0-0.6-0.1-1.1-0.3-1.5
			c-0.2-0.4-0.4-0.7-0.7-0.9s-0.7-0.3-1.1-0.3s-0.8,0.1-1.1,0.3s-0.6,0.5-0.7,0.9c-0.2,0.4-0.3,0.9-0.3,1.5s0.1,1.1,0.3,1.5
			c0.2,0.4,0.4,0.7,0.7,0.9s0.7,0.3,1.1,0.3s0.8-0.1,1.1-0.3s0.6-0.5,0.7-0.9C167.8,8.3,167.9,7.8,167.9,7.2z"/>
		<path d="M177.8,3.1v8.3h-1.5l-3.6-5.2h-0.1v5.2h-1.7V3.1h1.5l3.6,5.2h0.1V3.1H177.8z"/>
		<path d="M186.5,6h-1.8c0-0.2-0.1-0.4-0.2-0.6c-0.1-0.2-0.2-0.3-0.4-0.5s-0.3-0.2-0.5-0.3c-0.2-0.1-0.4-0.1-0.7-0.1
			c-0.4,0-0.8,0.1-1.1,0.3c-0.3,0.2-0.6,0.5-0.7,0.9c-0.2,0.4-0.3,0.9-0.3,1.5c0,0.6,0.1,1.1,0.3,1.5c0.2,0.4,0.4,0.7,0.7,0.9
			c0.3,0.2,0.7,0.3,1.1,0.3c0.2,0,0.5,0,0.6-0.1s0.4-0.2,0.5-0.3s0.3-0.3,0.4-0.4c0.1-0.2,0.2-0.4,0.2-0.6l1.8,0
			c0,0.4-0.2,0.7-0.3,1.1c-0.2,0.4-0.4,0.7-0.7,0.9c-0.3,0.3-0.7,0.5-1.1,0.7c-0.4,0.2-0.9,0.2-1.4,0.2c-0.7,0-1.4-0.2-2-0.5
			s-1-0.8-1.4-1.4c-0.3-0.6-0.5-1.4-0.5-2.3c0-0.9,0.2-1.7,0.5-2.3c0.3-0.6,0.8-1.1,1.4-1.4c0.6-0.3,1.2-0.5,2-0.5
			c0.5,0,0.9,0.1,1.3,0.2c0.4,0.1,0.8,0.3,1.1,0.6s0.6,0.6,0.8,0.9C186.3,5.1,186.5,5.5,186.5,6z"/>
		<path d="M187.8,11.4V3.1h5.5v1.4h-3.8v2h3.5v1.4h-3.5v2h3.8v1.4H187.8z"/>
		<path d="M201.6,3.1v8.3h-1.5l-3.6-5.2h-0.1v5.2h-1.7V3.1h1.5l3.6,5.2h0.1V3.1H201.6z"/>
		<path d="M202.7,4.5V3.1h6.8v1.4H207v6.8h-1.7V4.5H202.7z"/>
		<path d="M210.6,11.4V3.1h3.2c0.6,0,1.2,0.1,1.6,0.3c0.4,0.2,0.8,0.5,1,0.9c0.2,0.4,0.3,0.9,0.3,1.4c0,0.5-0.1,1-0.4,1.4
			s-0.6,0.7-1,0.9c-0.4,0.2-1,0.3-1.6,0.3h-2.2V7h1.9c0.3,0,0.6,0,0.8-0.1c0.2-0.1,0.4-0.2,0.5-0.4s0.2-0.4,0.2-0.7
			c0-0.3-0.1-0.5-0.2-0.7c-0.1-0.2-0.3-0.3-0.5-0.4c-0.2-0.1-0.5-0.1-0.8-0.1h-1.2v6.8H210.6z M215,7.6l2,3.8h-1.9l-2-3.8H215z"/>
		<path d="M219.4,11.4h-1.9l2.8-8.3h2.2l2.8,8.3h-1.9L221.6,5h-0.1L219.4,11.4z M219.3,8.1h4.4v1.4h-4.4V8.1z"/>
		<path d="M233.8,6H232c0-0.2-0.1-0.4-0.2-0.6c-0.1-0.2-0.2-0.3-0.4-0.5s-0.3-0.2-0.5-0.3c-0.2-0.1-0.4-0.1-0.7-0.1
			c-0.4,0-0.8,0.1-1.1,0.3c-0.3,0.2-0.6,0.5-0.7,0.9c-0.2,0.4-0.3,0.9-0.3,1.5c0,0.6,0.1,1.1,0.3,1.5c0.2,0.4,0.4,0.7,0.7,0.9
			c0.3,0.2,0.7,0.3,1.1,0.3c0.2,0,0.5,0,0.6-0.1s0.4-0.2,0.5-0.3s0.3-0.3,0.4-0.4c0.1-0.2,0.2-0.4,0.2-0.6l1.8,0
			c0,0.4-0.2,0.7-0.3,1.1c-0.2,0.4-0.4,0.7-0.7,0.9c-0.3,0.3-0.7,0.5-1.1,0.7c-0.4,0.2-0.9,0.2-1.4,0.2c-0.7,0-1.4-0.2-2-0.5
			s-1-0.8-1.4-1.4c-0.3-0.6-0.5-1.4-0.5-2.3c0-0.9,0.2-1.7,0.5-2.3c0.3-0.6,0.8-1.1,1.4-1.4c0.6-0.3,1.2-0.5,2-0.5
			c0.5,0,0.9,0.1,1.3,0.2c0.4,0.1,0.8,0.3,1.1,0.6s0.6,0.6,0.8,0.9C233.6,5.1,233.7,5.5,233.8,6z"/>
		<path d="M236.7,3.1v8.3H235V3.1H236.7z"/>
		<path d="M241.5,3.1h1.7v5.8c0,0.5-0.1,1-0.4,1.4c-0.2,0.4-0.6,0.7-1,0.9s-0.9,0.3-1.5,0.3c-0.5,0-0.9-0.1-1.3-0.3
			c-0.4-0.2-0.7-0.4-1-0.8c-0.2-0.4-0.4-0.8-0.3-1.4h1.7c0,0.2,0.1,0.4,0.1,0.6c0.1,0.2,0.2,0.3,0.3,0.4s0.3,0.1,0.5,0.1
			c0.2,0,0.4,0,0.5-0.1s0.3-0.2,0.3-0.4c0.1-0.2,0.1-0.4,0.1-0.7V3.1z"/>
		<path d="M246,11.4h-1.9l2.8-8.3h2.2l2.8,8.3h-1.9L248.2,5h-0.1L246,11.4z M245.9,8.1h4.4v1.4h-4.4V8.1z"/>
	</g>
</g>
<rect y="14.3" class="st1" width="129.1" height="13.3"/>
<g>
	<rect y="14.3" class="st2" width="129.1" height="13.3"/>
	<g>
		<g>
			<g>
				<defs>
					<rect id="SVGID_1_" y="14.3" width="129.1" height="13.3"/>
				</defs>
				<clipPath id="SVGID_00000064341895091988761070000016265652873878894489_">
					<use xlink:href="#SVGID_1_"  style="overflow:visible;"/>
				</clipPath>
				<g style="clip-path:url(#SVGID_00000064341895091988761070000016265652873878894489_);">
					<path d="M60.7,16.8c0.3,0,0.7,0.1,1,0.2s0.6,0.3,0.9,0.6c0.3,0.3,0.5,0.7,0.6,1.2c0.2,0.6,0.3,1.2,0.2,1.8
						c0,0.6-0.1,1.3-0.2,1.9c-0.1,0.5-0.3,1-0.6,1.4c-0.2,0.4-0.5,0.7-0.9,0.9c-0.8,0.4-1.7,0.4-2.4,0c-0.3-0.2-0.6-0.4-0.9-0.8
						c-0.2-0.3-0.4-0.7-0.4-1.1h1c0.1,0.3,0.3,0.7,0.5,0.9c0.3,0.2,0.6,0.4,1,0.4c0.6,0,1.2-0.3,1.5-0.8c0.4-0.7,0.6-1.5,0.5-2.3
						h-0.1c-0.1,0.2-0.3,0.4-0.5,0.6s-0.4,0.3-0.7,0.4s-0.5,0.1-0.8,0.1c-0.4,0-0.9-0.1-1.3-0.3c-0.4-0.2-0.7-0.6-0.9-1
						s-0.3-0.9-0.3-1.4s0.1-0.9,0.3-1.3s0.5-0.8,0.9-1C59.7,16.9,60.2,16.8,60.7,16.8z M60.7,17.7c-0.3,0-0.6,0.1-0.9,0.2
						c-0.3,0.2-0.5,0.4-0.6,0.7C59,18.9,59,19.2,59,19.5s0.1,0.6,0.2,0.9c0.1,0.3,0.4,0.5,0.6,0.7c0.5,0.3,1.1,0.3,1.6,0.1
						c0.2-0.1,0.4-0.2,0.6-0.4c0.2-0.2,0.3-0.4,0.4-0.6c0.1-0.2,0.1-0.4,0.1-0.7c0-0.3-0.1-0.6-0.2-0.9c-0.1-0.3-0.4-0.5-0.6-0.7
						C61.3,17.7,61,17.7,60.7,17.7z M68,25.1c-0.5,0-1.1-0.2-1.5-0.5c-0.5-0.4-0.8-0.9-1-1.4c-0.4-1.5-0.4-3,0-4.5
						c0.2-0.6,0.5-1,1-1.4c0.9-0.7,2.1-0.7,3,0c0.5,0.4,0.8,0.9,1,1.4c0.4,1.5,0.4,3,0,4.5c-0.2,0.6-0.5,1-1,1.4
						C69.1,24.9,68.6,25.1,68,25.1z M68,24.2c0.6,0,1.1-0.3,1.4-0.8c0.4-0.7,0.5-1.6,0.5-2.4c0-0.6-0.1-1.2-0.2-1.8
						c-0.1-0.4-0.3-0.8-0.6-1.1c-0.3-0.3-0.6-0.4-1-0.4c-0.6,0-1.1,0.3-1.4,0.8c-0.4,0.8-0.5,1.6-0.5,2.4c0,0.6,0.1,1.2,0.2,1.8
						c0.1,0.4,0.3,0.8,0.6,1.1C67.3,24.1,67.7,24.2,68,24.2z"/>
				</g>
			</g>
		</g>
	</g>
</g>
<rect x="129.4" y="14.3" class="st1" width="127.2" height="13.3"/>
<g>
	<rect x="129.4" y="14.3" class="st2" width="127.2" height="13.3"/>
	<g>
		<g>
			<g>
				<defs>
					<rect id="SVGID_00000150815224033956572110000007978710676233858212_" x="129.4" y="14.3" width="127.2" height="13.3"/>
				</defs>
				<clipPath id="SVGID_00000044858443871787060810000005443890572200196259_">
					<use xlink:href="#SVGID_00000150815224033956572110000007978710676233858212_"  style="overflow:visible;"/>
				</clipPath>
				<g style="clip-path:url(#SVGID_00000044858443871787060810000005443890572200196259_);">
					<path d="M192.6,25.1c-0.5,0-1.1-0.2-1.5-0.5c-0.4-0.4-0.8-0.9-1-1.4c-0.4-1.5-0.4-3,0-4.5c0.2-0.6,0.5-1,1-1.4
						c0.9-0.7,2.1-0.7,3,0c0.5,0.4,0.8,0.9,1,1.4c0.4,1.5,0.4,3,0,4.5c-0.2,0.6-0.5,1-1,1.4C193.7,24.9,193.2,25.1,192.6,25.1z
						 M192.6,24.2c0.6,0,1.1-0.3,1.4-0.8c0.4-0.7,0.5-1.6,0.5-2.4c0-0.6-0.1-1.2-0.2-1.8c-0.1-0.4-0.3-0.8-0.6-1.1
						c-0.3-0.3-0.6-0.4-1-0.4c-0.6,0-1.1,0.3-1.4,0.8c-0.4,0.8-0.5,1.6-0.5,2.4c0,0.6,0.1,1.2,0.2,1.8c0.1,0.4,0.3,0.8,0.6,1.1
						C191.9,24.1,192.2,24.2,192.6,24.2z"/>
				</g>
			</g>
		</g>
	</g>
</g>
<rect y="13.8" class="st5" width="129.1" height="0.5"/>
<rect x="129.1" y="13.8" class="st5" width="0.5" height="0.5"/>
<rect x="129.6" y="13.8" class="st5" width="0.5" height="0.5"/>
<rect x="130.1" y="13.8" class="st5" width="126.5" height="0.5"/>
<rect x="129.1" y="14.3" class="st5" width="0.5" height="13.3"/>
<g>
	<g>
		<defs>
			<rect id="SVGID_00000082367880721426302420000006922253143908061589_" y="27.6" width="129.1" height="13.3"/>
		</defs>
		<clipPath id="SVGID_00000164484000382700407170000011225570532179657904_">
			<use xlink:href="#SVGID_00000082367880721426302420000006922253143908061589_"  style="overflow:visible;"/>
		</clipPath>
		<g style="clip-path:url(#SVGID_00000164484000382700407170000011225570532179657904_);">
			<g>
				<g>
					<defs>
						<rect id="SVGID_00000062887571198507183150000006262515608322586519_" y="27.6" width="129.1" height="13.3"/>
					</defs>
					<clipPath id="SVGID_00000060016248087259236210000005731534034911509901_">
						<use xlink:href="#SVGID_00000062887571198507183150000006262515608322586519_"  style="overflow:visible;"/>
					</clipPath>
					<g style="clip-path:url(#SVGID_00000060016248087259236210000005731534034911509901_);">
						<path d="M60.7,38.4c-0.5,0-1-0.1-1.4-0.3s-0.7-0.4-1-0.8c-0.2-0.3-0.4-0.7-0.4-1.2c0-0.3,0.1-0.7,0.2-1
							c0.1-0.3,0.3-0.5,0.6-0.7c0.2-0.2,0.5-0.3,0.8-0.4l0,0c-0.4-0.1-0.7-0.3-0.9-0.7c-0.4-0.7-0.4-1.5,0-2.2
							c0.2-0.3,0.5-0.6,0.9-0.8c0.4-0.2,0.8-0.3,1.2-0.3s0.9,0.1,1.2,0.3c0.3,0.2,0.6,0.4,0.9,0.8c0.2,0.3,0.3,0.7,0.3,1.1
							c0,0.4-0.1,0.8-0.3,1.1s-0.5,0.6-0.9,0.7v0c0.3,0,0.6,0.2,0.8,0.4s0.4,0.4,0.6,0.7c0.1,0.3,0.2,0.7,0.2,1
							c0,0.4-0.1,0.8-0.4,1.2c-0.3,0.4-0.6,0.6-1,0.8C61.6,38.3,61.1,38.4,60.7,38.4z M60.7,37.5c0.3,0,0.6-0.1,0.9-0.2
							c0.3-0.1,0.5-0.3,0.6-0.5s0.2-0.5,0.2-0.8s-0.1-0.6-0.2-0.8c-0.2-0.2-0.4-0.4-0.6-0.6c-0.3-0.1-0.6-0.2-0.9-0.2
							c-0.3,0-0.6,0.1-0.9,0.2c-0.3,0.1-0.5,0.3-0.6,0.6C59,35.4,59,35.7,59,36s0.1,0.5,0.2,0.8c0.2,0.2,0.4,0.4,0.6,0.5
							C60,37.5,60.3,37.5,60.7,37.5z M60.7,33.7c0.3,0,0.5-0.1,0.8-0.2c0.2-0.1,0.4-0.3,0.5-0.5s0.2-0.5,0.2-0.7
							c0-0.3-0.1-0.5-0.2-0.7c-0.1-0.2-0.3-0.4-0.5-0.5C61.2,31,60.9,31,60.7,31c-0.3,0-0.5,0-0.8,0.2c-0.4,0.2-0.7,0.7-0.7,1.2
							c0,0.3,0.1,0.5,0.2,0.7c0.1,0.2,0.3,0.4,0.5,0.5C60.1,33.6,60.4,33.7,60.7,33.7z M68,38.4c-0.5,0-1.1-0.2-1.5-0.5
							c-0.5-0.4-0.8-0.9-1-1.4c-0.4-1.5-0.4-3,0-4.5c0.2-0.6,0.5-1,1-1.4c0.9-0.7,2.1-0.7,3,0c0.5,0.4,0.8,0.9,1,1.4
							c0.4,1.5,0.4,3,0,4.5c-0.2,0.6-0.5,1-1,1.4C69.1,38.2,68.6,38.4,68,38.4z M68,37.5c0.6,0,1.1-0.3,1.4-0.8
							c0.4-0.7,0.5-1.6,0.5-2.4c0-0.6-0.1-1.2-0.2-1.8c-0.1-0.4-0.3-0.8-0.6-1.1c-0.3-0.3-0.6-0.4-1-0.4c-0.6,0-1.1,0.3-1.4,0.8
							c-0.4,0.8-0.5,1.6-0.5,2.4c0,0.6,0.1,1.2,0.2,1.8c0.1,0.4,0.3,0.8,0.6,1.1C67.3,37.4,67.7,37.5,68,37.5z"/>
					</g>
				</g>
			</g>
		</g>
	</g>
</g>
<g>
	<g>
		<defs>
			<rect id="SVGID_00000023260041212223646720000006131118966346004864_" x="129.4" y="27.6" width="127.2" height="13.3"/>
		</defs>
		<clipPath id="SVGID_00000052818903838752633020000014427659781525864322_">
			<use xlink:href="#SVGID_00000023260041212223646720000006131118966346004864_"  style="overflow:visible;"/>
		</clipPath>
		<g style="clip-path:url(#SVGID_00000052818903838752633020000014427659781525864322_);">
			<g>
				<g>
					<defs>
						<rect id="SVGID_00000155117794583573031850000017919850173847800978_" x="129.4" y="27.6" width="127.2" height="13.3"/>
					</defs>
					<clipPath id="SVGID_00000078728377226453412940000016881594436026727319_">
						<use xlink:href="#SVGID_00000155117794583573031850000017919850173847800978_"  style="overflow:visible;"/>
					</clipPath>
					<g style="clip-path:url(#SVGID_00000078728377226453412940000016881594436026727319_);">
						<path d="M190.2,30.2v8h-1v-7l0,0l-2,1.3v-1l2-1.3H190.2z M195.4,38.4c-0.5,0-1.1-0.2-1.5-0.5c-0.4-0.4-0.8-0.9-1-1.4
							c-0.4-1.5-0.4-3,0-4.5c0.2-0.6,0.5-1,1-1.4c0.9-0.7,2.1-0.7,3,0c0.5,0.4,0.8,0.9,1,1.4c0.4,1.5,0.4,3,0,4.5
							c-0.2,0.5-0.5,1-1,1.4C196.5,38.2,196,38.4,195.4,38.4L195.4,38.4z M195.4,37.5c0.6,0,1.1-0.3,1.4-0.8
							c0.4-0.7,0.5-1.6,0.5-2.4c0-0.6-0.1-1.2-0.2-1.8c-0.1-0.4-0.3-0.8-0.6-1.1c-0.3-0.3-0.6-0.4-1-0.4c-0.6,0-1.1,0.3-1.4,0.8
							c-0.4,0.8-0.5,1.6-0.5,2.4c0,0.6,0.1,1.2,0.2,1.8c0.1,0.4,0.3,0.8,0.6,1.1C194.6,37.4,195,37.5,195.4,37.5L195.4,37.5z"/>
					</g>
				</g>
			</g>
		</g>
	</g>
</g>
<rect x="129.1" y="27.6" class="st5" width="0.5" height="13.3"/>
<rect y="40.9" class="st1" width="129.1" height="13.3"/>
<g>
	<rect y="40.9" class="st2" width="129.1" height="13.3"/>
	<g>
		<g>
			<g>
				<defs>
					<rect id="SVGID_00000125599164835008399250000017704009245212053131_" y="40.9" width="129.1" height="13.3"/>
				</defs>
				<clipPath id="SVGID_00000090976283146729565630000013657093494409734845_">
					<use xlink:href="#SVGID_00000125599164835008399250000017704009245212053131_"  style="overflow:visible;"/>
				</clipPath>
				<g style="clip-path:url(#SVGID_00000090976283146729565630000013657093494409734845_);">
					<path d="M58.7,51.6l3.6-7.1l0,0h-4.1v-0.9h5.1v0.9l-3.6,7.1H58.7z M67.7,51.7c-0.5,0-1.1-0.2-1.5-0.5c-0.4-0.4-0.8-0.9-0.9-1.4
						c-0.4-1.5-0.4-3,0-4.5c0.2-0.6,0.5-1,1-1.4c0.9-0.7,2.1-0.7,3,0c0.5,0.4,0.8,0.9,1,1.4c0.4,1.5,0.4,3,0,4.5
						c-0.2,0.5-0.5,1-0.9,1.4C68.8,51.6,68.3,51.7,67.7,51.7L67.7,51.7z M67.7,50.8c0.6,0,1.1-0.3,1.4-0.8c0.4-0.7,0.5-1.6,0.5-2.4
						c0-0.6-0.1-1.2-0.2-1.8c-0.1-0.4-0.3-0.8-0.6-1.1c-0.3-0.3-0.6-0.4-1-0.4c-0.6,0-1.1,0.3-1.4,0.8c-0.4,0.8-0.5,1.6-0.5,2.4
						c0,0.6,0.1,1.2,0.2,1.8c0.1,0.4,0.3,0.8,0.6,1.1C67,50.7,67.3,50.8,67.7,50.8L67.7,50.8z"/>
				</g>
			</g>
		</g>
	</g>
</g>
<rect x="129.4" y="40.9" class="st1" width="127.2" height="13.3"/>
<g>
	<rect x="129.4" y="40.9" class="st2" width="127.2" height="13.3"/>
	<g>
		<g>
			<g>
				<defs>
					<rect id="SVGID_00000040537058872562466540000002239776211976684983_" x="129.4" y="40.9" width="127.2" height="13.3"/>
				</defs>
				<clipPath id="SVGID_00000083811370953345811050000018166924383539060652_">
					<use xlink:href="#SVGID_00000040537058872562466540000002239776211976684983_"  style="overflow:visible;"/>
				</clipPath>
				<g style="clip-path:url(#SVGID_00000083811370953345811050000018166924383539060652_);">
					<path d="M186.5,51.6v-0.7l2.6-2.9c0.3-0.3,0.6-0.6,0.8-0.9c0.2-0.2,0.3-0.5,0.5-0.7c0.1-0.2,0.2-0.5,0.1-0.7
						c0-0.3-0.1-0.5-0.2-0.7c-0.1-0.2-0.3-0.4-0.5-0.5s-0.5-0.2-0.8-0.2s-0.6,0.1-0.8,0.2c-0.2,0.1-0.4,0.3-0.5,0.5
						s-0.2,0.5-0.2,0.8h-0.9c0-0.4,0.1-0.9,0.3-1.2c0.2-0.4,0.5-0.6,0.9-0.8s0.8-0.3,1.3-0.3c0.4,0,0.9,0.1,1.2,0.3s0.6,0.5,0.9,0.8
						c0.2,0.3,0.3,0.7,0.3,1.1c0,0.3-0.1,0.6-0.2,0.9c-0.1,0.3-0.3,0.7-0.5,0.9c-0.3,0.3-0.6,0.8-1.1,1.3l-1.8,1.9v0.1h3.7v0.9
						L186.5,51.6z M196.1,51.7c-0.5,0-1.1-0.2-1.5-0.5c-0.4-0.4-0.8-0.9-1-1.4c-0.4-1.5-0.4-3,0-4.5c0.2-0.6,0.5-1,1-1.4
						c0.9-0.7,2.1-0.7,3,0c0.5,0.4,0.8,0.9,1,1.4c0.4,1.5,0.4,3,0,4.5c-0.2,0.5-0.5,1-1,1.4C197.2,51.6,196.7,51.7,196.1,51.7z
						 M196.1,50.8c0.6,0,1.1-0.3,1.4-0.8c0.4-0.7,0.5-1.6,0.5-2.4c0-0.6-0.1-1.2-0.2-1.8c-0.1-0.4-0.3-0.8-0.6-1.1s-0.6-0.4-1-0.4
						c-0.6,0-1.1,0.3-1.4,0.8c-0.4,0.8-0.5,1.6-0.5,2.4c0,0.6,0.1,1.2,0.2,1.8c0.1,0.4,0.3,0.8,0.6,1.1
						C195.4,50.7,195.7,50.8,196.1,50.8z"/>
				</g>
			</g>
		</g>
	</g>
</g>
<rect x="129.1" y="40.9" class="st5" width="0.5" height="13.3"/>
<g>
	<g>
		<defs>
			<rect id="SVGID_00000095329722904305927240000017888717575182220701_" y="54.2" width="129.1" height="13.3"/>
		</defs>
		<clipPath id="SVGID_00000056425979705308267400000007966617195980964000_">
			<use xlink:href="#SVGID_00000095329722904305927240000017888717575182220701_"  style="overflow:visible;"/>
		</clipPath>
		<g style="clip-path:url(#SVGID_00000056425979705308267400000007966617195980964000_);">
			<g>
				<g>
					<defs>
						<rect id="SVGID_00000081606839307891103770000017843936201444872884_" y="54.2" width="129.1" height="13.3"/>
					</defs>
					<clipPath id="SVGID_00000174598587314464764990000002252675007301669019_">
						<use xlink:href="#SVGID_00000081606839307891103770000017843936201444872884_"  style="overflow:visible;"/>
					</clipPath>
					<g style="clip-path:url(#SVGID_00000174598587314464764990000002252675007301669019_);">
						<path d="M60.8,65c-0.3,0-0.7-0.1-1-0.2s-0.7-0.3-0.9-0.6c-0.3-0.3-0.5-0.7-0.7-1.2C58,62.4,58,61.8,58,61.2s0.1-1.3,0.2-1.9
							c0.1-0.5,0.3-1,0.6-1.4c0.2-0.4,0.5-0.7,0.9-0.9s0.8-0.3,1.2-0.3s0.8,0.1,1.2,0.3c0.3,0.2,0.6,0.4,0.9,0.8
							c0.2,0.3,0.4,0.7,0.4,1.1h-1c-0.1-0.3-0.3-0.7-0.5-0.9c-0.3-0.2-0.6-0.4-1-0.4c-0.6,0-1.2,0.3-1.5,0.8
							c-0.4,0.7-0.6,1.5-0.5,2.3H59c0.1-0.2,0.3-0.4,0.5-0.6c0.2-0.2,0.4-0.3,0.7-0.4c0.3-0.1,0.5-0.1,0.8-0.1
							c0.4,0,0.9,0.1,1.3,0.3c0.4,0.2,0.7,0.6,0.9,0.9c0.2,0.4,0.4,0.9,0.4,1.4s-0.1,0.9-0.3,1.4C62.7,64.5,61.8,65,60.8,65L60.8,65
							z M60.8,64.2c0.3,0,0.6-0.1,0.9-0.2c0.3-0.2,0.5-0.4,0.6-0.7c0.2-0.3,0.2-0.6,0.2-0.9c0-0.3-0.1-0.6-0.2-0.9
							c-0.1-0.3-0.4-0.5-0.6-0.6c-0.3-0.2-0.6-0.2-0.9-0.2c-0.2,0-0.5,0-0.7,0.1s-0.4,0.2-0.6,0.4c-0.2,0.2-0.3,0.4-0.4,0.6
							c-0.3,0.8,0,1.8,0.7,2.2C60.1,64.1,60.5,64.2,60.8,64.2z M68,65c-0.5,0-1.1-0.2-1.5-0.5c-0.5-0.4-0.8-0.9-1-1.4
							c-0.4-1.5-0.4-3,0-4.5c0.2-0.6,0.5-1,1-1.4c0.9-0.7,2.1-0.7,3,0c0.5,0.4,0.8,0.9,1,1.4c0.4,1.5,0.4,3,0,4.5
							c-0.2,0.6-0.5,1-1,1.4C69.1,64.9,68.6,65,68,65z M68,64.2c0.6,0,1.1-0.3,1.4-0.9c0.4-0.7,0.5-1.6,0.5-2.4
							c0-0.6-0.1-1.2-0.2-1.8c-0.1-0.4-0.3-0.8-0.6-1.1c-0.3-0.3-0.6-0.4-1-0.4c-0.6,0-1.1,0.3-1.4,0.9c-0.4,0.8-0.5,1.6-0.5,2.4
							c0,0.6,0.1,1.2,0.2,1.8c0.1,0.4,0.3,0.8,0.6,1.1C67.3,64,67.7,64.2,68,64.2z"/>
					</g>
				</g>
			</g>
		</g>
	</g>
</g>
<g>
	<g>
		<defs>
			<rect id="SVGID_00000115487944181578605060000009219605525779805088_" x="129.4" y="54.2" width="127.2" height="13.3"/>
		</defs>
		<clipPath id="SVGID_00000174561471964643661420000000996644365366689953_">
			<use xlink:href="#SVGID_00000115487944181578605060000009219605525779805088_"  style="overflow:visible;"/>
		</clipPath>
		<g style="clip-path:url(#SVGID_00000174561471964643661420000000996644365366689953_);">
			<g>
				<g>
					<defs>
						<rect id="SVGID_00000111191488920986371500000006589805882734004665_" x="129.4" y="54.2" width="127.2" height="13.3"/>
					</defs>
					<clipPath id="SVGID_00000018940383351615860860000012519832623798166166_">
						<use xlink:href="#SVGID_00000111191488920986371500000006589805882734004665_"  style="overflow:visible;"/>
					</clipPath>
					<g style="clip-path:url(#SVGID_00000018940383351615860860000012519832623798166166_);">
						<path d="M189.1,65c-0.5,0-0.9-0.1-1.4-0.3c-0.4-0.2-0.7-0.4-1-0.7c-0.2-0.3-0.4-0.7-0.4-1.1h1c0,0.2,0.1,0.5,0.3,0.7
							s0.4,0.3,0.6,0.4c0.3,0.1,0.6,0.2,0.8,0.2c0.3,0,0.6-0.1,0.9-0.2c0.2-0.1,0.5-0.3,0.6-0.5c0.2-0.2,0.2-0.5,0.2-0.8
							s-0.1-0.5-0.2-0.8c-0.2-0.2-0.4-0.4-0.6-0.5c-0.3-0.1-0.7-0.2-1-0.2h-0.6v-0.9h0.6c0.3,0,0.6-0.1,0.8-0.2
							c0.2-0.1,0.4-0.3,0.6-0.5c0.1-0.2,0.2-0.5,0.2-0.7s-0.1-0.5-0.2-0.7c-0.1-0.2-0.3-0.4-0.5-0.5s-0.5-0.2-0.8-0.2
							s-0.5,0-0.8,0.1c-0.2,0.1-0.4,0.2-0.6,0.4c-0.2,0.2-0.2,0.4-0.2,0.7h-0.9c0-0.4,0.1-0.8,0.4-1.1c0.2-0.3,0.6-0.6,0.9-0.7
							c0.4-0.2,0.8-0.3,1.3-0.3c0.4,0,0.9,0.1,1.3,0.3c0.7,0.4,1.1,1.1,1.1,1.9c0,0.4-0.1,0.8-0.4,1.2c-0.2,0.3-0.6,0.6-1,0.7v0.1
							c0.5,0.1,0.9,0.3,1.2,0.6c0.5,0.7,0.6,1.7,0.1,2.4c-0.3,0.4-0.6,0.6-1,0.8C190,64.9,189.6,65,189.1,65z M196.3,65
							c-0.5,0-1.1-0.2-1.5-0.5c-0.5-0.4-0.8-0.9-1-1.4c-0.4-1.5-0.4-3,0-4.5c0.2-0.6,0.5-1,1-1.4c0.9-0.7,2.1-0.7,3,0
							c0.5,0.4,0.8,0.9,1,1.4c0.4,1.5,0.4,3,0,4.5c-0.2,0.5-0.5,1-1,1.4C197.4,64.9,196.9,65,196.3,65L196.3,65z M196.3,64.2
							c0.6,0,1.1-0.3,1.4-0.9c0.4-0.7,0.5-1.6,0.5-2.4c0-0.6-0.1-1.2-0.2-1.8c-0.1-0.4-0.3-0.8-0.6-1.1s-0.6-0.4-1-0.4
							c-0.6,0-1.1,0.3-1.3,0.8c-0.4,0.8-0.5,1.6-0.5,2.4c0,0.6,0.1,1.2,0.2,1.8c0.1,0.4,0.3,0.8,0.6,1.1
							C195.6,64,196,64.1,196.3,64.2L196.3,64.2z"/>
					</g>
				</g>
			</g>
		</g>
	</g>
</g>
<rect x="129.1" y="54.2" class="st5" width="0.5" height="13.3"/>
<rect y="67.5" class="st1" width="129.1" height="13.3"/>
<g>
	<rect y="67.5" class="st2" width="129.1" height="13.3"/>
	<g>
		<g>
			<g>
				<defs>
					<rect id="SVGID_00000015333195200218904460000005601792756808173733_" y="67.5" width="129.1" height="13.3"/>
				</defs>
				<clipPath id="SVGID_00000035515741004767026910000000615123954002236565_">
					<use xlink:href="#SVGID_00000015333195200218904460000005601792756808173733_"  style="overflow:visible;"/>
				</clipPath>
				<g style="clip-path:url(#SVGID_00000035515741004767026910000000615123954002236565_);">
					<path d="M60.7,78.3c-0.4,0-0.9-0.1-1.2-0.3c-0.4-0.2-0.7-0.4-0.9-0.8c-0.2-0.3-0.3-0.7-0.4-1.1h0.9c0,0.4,0.2,0.7,0.5,0.9
						c0.3,0.2,0.7,0.4,1.1,0.4c0.3,0,0.6-0.1,0.9-0.2c0.3-0.2,0.5-0.4,0.6-0.6c0.2-0.3,0.2-0.6,0.2-0.9s-0.1-0.7-0.2-0.9
						c-0.1-0.3-0.4-0.5-0.6-0.6C61.3,74,61,74,60.7,74c-0.3,0-0.5,0-0.8,0.1c-0.2,0.1-0.4,0.2-0.6,0.3l-0.9-0.1l0.5-3.9H63v0.9h-3.4
						l-0.2,2.4l0,0c0.2-0.1,0.4-0.3,0.6-0.3c0.2-0.1,0.5-0.1,0.8-0.1c0.5,0,0.9,0.1,1.3,0.4c0.4,0.2,0.7,0.6,0.9,1s0.3,0.9,0.3,1.4
						s-0.1,1-0.3,1.4s-0.6,0.7-0.9,0.9C61.6,78.2,61.2,78.3,60.7,78.3z M67.9,78.3c-0.5,0-1.1-0.2-1.5-0.5c-0.5-0.4-0.8-0.9-1-1.4
						c-0.4-1.5-0.4-3,0-4.5c0.2-0.6,0.5-1,1-1.4c0.9-0.7,2.1-0.7,3,0c0.5,0.4,0.8,0.9,1,1.4c0.4,1.5,0.4,3,0,4.5
						c-0.2,0.6-0.5,1-1,1.4C69,78.2,68.5,78.3,67.9,78.3z M67.9,77.5c0.6,0,1.1-0.3,1.4-0.9c0.4-0.7,0.5-1.6,0.5-2.4
						c0-0.6-0.1-1.2-0.2-1.8c-0.1-0.4-0.3-0.8-0.6-1.1c-0.3-0.3-0.6-0.4-1-0.4c-0.6,0-1.1,0.3-1.4,0.9c-0.4,0.8-0.5,1.6-0.5,2.4
						c0,0.6,0.1,1.2,0.2,1.8c0.1,0.4,0.3,0.8,0.6,1.1C67.2,77.3,67.6,77.5,67.9,77.5L67.9,77.5z"/>
				</g>
			</g>
		</g>
	</g>
</g>
<rect x="129.4" y="67.5" class="st1" width="127.2" height="13.3"/>
<g>
	<rect x="129.4" y="67.5" class="st2" width="127.2" height="13.3"/>
	<g>
		<g>
			<g>
				<defs>
					<rect id="SVGID_00000178894599958808377130000015748080825362895019_" x="129.4" y="67.5" width="127.2" height="13.3"/>
				</defs>
				<clipPath id="SVGID_00000049927683544328767470000010407222958691228047_">
					<use xlink:href="#SVGID_00000178894599958808377130000015748080825362895019_"  style="overflow:visible;"/>
				</clipPath>
				<g style="clip-path:url(#SVGID_00000049927683544328767470000010407222958691228047_);">
					<path d="M186.1,76.6v-0.8l3.5-5.6h0.6v1.2h-0.4l-2.7,4.2v0.1h4.8v0.9L186.1,76.6z M189.9,78.2v-8h0.9v8H189.9z M196.3,78.3
						c-0.5,0-1.1-0.2-1.5-0.5c-0.5-0.4-0.8-0.9-1-1.4c-0.4-1.5-0.4-3,0-4.5c0.2-0.6,0.5-1,1-1.4c0.9-0.7,2.1-0.7,3,0
						c0.5,0.4,0.8,0.9,1,1.4c0.4,1.5,0.4,3,0,4.5c-0.2,0.5-0.5,1-1,1.4C197.4,78.2,196.9,78.4,196.3,78.3z M196.3,77.5
						c0.6,0,1.1-0.3,1.4-0.9c0.4-0.7,0.5-1.6,0.5-2.4c0-0.6-0.1-1.2-0.2-1.8c-0.1-0.4-0.3-0.8-0.6-1.1c-0.3-0.3-0.6-0.4-1-0.4
						c-0.6,0-1.1,0.3-1.4,0.9c-0.4,0.8-0.5,1.6-0.5,2.4c0,0.6,0.1,1.2,0.2,1.8c0.1,0.4,0.3,0.8,0.6,1.1
						C195.6,77.3,196,77.5,196.3,77.5L196.3,77.5z"/>
				</g>
			</g>
		</g>
	</g>
</g>
<rect x="129.1" y="67.5" class="st5" width="0.5" height="13.3"/>
<g>
	<g>
		<defs>
			<rect id="SVGID_00000129198943943854253820000000949541573772681659_" y="80.9" width="129.1" height="13.3"/>
		</defs>
		<clipPath id="SVGID_00000079473365134746019560000001326833789372517536_">
			<use xlink:href="#SVGID_00000129198943943854253820000000949541573772681659_"  style="overflow:visible;"/>
		</clipPath>
		<g style="clip-path:url(#SVGID_00000079473365134746019560000001326833789372517536_);">
			<g>
				<g>
					<defs>
						<rect id="SVGID_00000109744705156865726030000015976744790505527181_" y="80.9" width="129.1" height="13.3"/>
					</defs>
					<clipPath id="SVGID_00000114772000567012540240000006973764363816981653_">
						<use xlink:href="#SVGID_00000109744705156865726030000015976744790505527181_"  style="overflow:visible;"/>
					</clipPath>
					<g style="clip-path:url(#SVGID_00000114772000567012540240000006973764363816981653_);">
						<path d="M57.8,89.9v-0.8l3.5-5.6h0.6v1.2h-0.4L58.8,89l0,0h4.8v0.9H57.8z M61.6,91.5v-8h0.9v8H61.6z M68,91.6
							c-0.5,0-1.1-0.2-1.5-0.5c-0.5-0.4-0.8-0.9-1-1.4c-0.4-1.5-0.4-3,0-4.5c0.2-0.6,0.5-1,1-1.4c0.9-0.7,2.1-0.7,3,0
							c0.5,0.4,0.8,0.9,1,1.4c0.4,1.5,0.4,3,0,4.5c-0.2,0.6-0.5,1-1,1.4C69.1,91.5,68.6,91.7,68,91.6L68,91.6z M68,90.8
							c0.6,0,1.1-0.3,1.4-0.9c0.4-0.7,0.5-1.6,0.5-2.4c0-0.6-0.1-1.2-0.2-1.8c-0.1-0.4-0.3-0.8-0.6-1.1c-0.3-0.3-0.6-0.4-1-0.4
							c-0.6,0-1.1,0.3-1.4,0.9c-0.4,0.8-0.5,1.6-0.5,2.4c0,0.6,0.1,1.2,0.2,1.8c0.1,0.4,0.3,0.8,0.6,1.1
							C67.3,90.7,67.7,90.8,68,90.8L68,90.8z"/>
					</g>
				</g>
			</g>
		</g>
	</g>
</g>
<g>
	<g>
		<defs>
			<rect id="SVGID_00000121256618228048072100000017787133217147871929_" x="129.4" y="80.9" width="127.2" height="13.3"/>
		</defs>
		<clipPath id="SVGID_00000067232070141939885510000012085506569482803108_">
			<use xlink:href="#SVGID_00000121256618228048072100000017787133217147871929_"  style="overflow:visible;"/>
		</clipPath>
		<g style="clip-path:url(#SVGID_00000067232070141939885510000012085506569482803108_);">
			<g>
				<g>
					<defs>
						<rect id="SVGID_00000080197435982951306330000000854581113699155367_" x="129.4" y="80.9" width="127.2" height="13.3"/>
					</defs>
					<clipPath id="SVGID_00000003810727188402100710000008782325772526147745_">
						<use xlink:href="#SVGID_00000080197435982951306330000000854581113699155367_"  style="overflow:visible;"/>
					</clipPath>
					<g style="clip-path:url(#SVGID_00000003810727188402100710000008782325772526147745_);">
						<path d="M189,91.7c-0.4,0-0.9-0.1-1.2-0.3c-0.4-0.2-0.7-0.4-0.9-0.8c-0.2-0.3-0.3-0.7-0.4-1.1h0.9c0,0.4,0.2,0.7,0.5,0.9
							c0.3,0.2,0.7,0.4,1.1,0.4c0.3,0,0.6-0.1,0.9-0.2c0.3-0.2,0.5-0.4,0.6-0.6c0.2-0.3,0.2-0.6,0.2-0.9s-0.1-0.7-0.2-0.9
							c-0.1-0.3-0.4-0.5-0.6-0.6c-0.3-0.2-0.6-0.2-0.9-0.2c-0.3,0-0.5,0-0.8,0.1c-0.2,0.1-0.4,0.2-0.6,0.3l-0.9-0.1l0.5-4h4.2v0.9
							H188l-0.3,2.4l0,0c0.2-0.1,0.4-0.3,0.6-0.3c0.2-0.1,0.5-0.1,0.8-0.1c0.5,0,0.9,0.1,1.3,0.4c0.4,0.2,0.7,0.6,0.9,1
							s0.3,0.9,0.3,1.4s-0.1,1-0.3,1.4s-0.5,0.8-1,1C190,91.6,189.5,91.7,189,91.7z M196.2,91.7c-0.5,0-1.1-0.2-1.5-0.5
							c-0.5-0.4-0.8-0.9-1-1.4c-0.4-1.5-0.4-3,0-4.5c0.2-0.6,0.5-1,1-1.4c0.9-0.7,2.1-0.7,3,0c0.5,0.4,0.8,0.9,1,1.4
							c0.4,1.5,0.4,3,0,4.5c-0.2,0.5-0.5,1-1,1.4C197.3,91.5,196.8,91.7,196.2,91.7z M196.2,90.8c0.6,0,1.1-0.3,1.4-0.9
							c0.4-0.7,0.5-1.6,0.5-2.4c0-0.6-0.1-1.2-0.2-1.8c-0.1-0.4-0.3-0.8-0.6-1.1c-0.3-0.3-0.6-0.4-1-0.4c-0.6,0-1.1,0.3-1.4,0.9
							c-0.4,0.8-0.5,1.6-0.5,2.4c0,0.6,0.1,1.2,0.2,1.8c0.1,0.4,0.3,0.8,0.6,1.1S195.8,90.8,196.2,90.8z"/>
					</g>
				</g>
			</g>
		</g>
	</g>
</g>
<rect x="129.1" y="80.9" class="st5" width="0.5" height="13.3"/>
<rect y="94.2" class="st1" width="129.1" height="13.3"/>
<g>
	<rect y="94.2" class="st2" width="129.1" height="13.3"/>
	<g>
		<g>
			<g>
				<defs>
					<rect id="SVGID_00000025423413340391698310000017512659543732539276_" y="94.2" width="129.1" height="13.3"/>
				</defs>
				<clipPath id="SVGID_00000091715876038061618080000001556704412977767050_">
					<use xlink:href="#SVGID_00000025423413340391698310000017512659543732539276_"  style="overflow:visible;"/>
				</clipPath>
				<g style="clip-path:url(#SVGID_00000091715876038061618080000001556704412977767050_);">
					<path d="M60.8,105c-0.5,0-0.9-0.1-1.4-0.3c-0.4-0.2-0.7-0.4-1-0.7c-0.2-0.3-0.4-0.7-0.4-1.1h1c0,0.2,0.1,0.5,0.3,0.7
						s0.4,0.3,0.6,0.4c0.3,0.1,0.6,0.2,0.8,0.2c0.3,0,0.6-0.1,0.9-0.2c0.2-0.1,0.5-0.3,0.6-0.5c0.2-0.2,0.2-0.5,0.2-0.8
						s-0.1-0.5-0.2-0.8c-0.2-0.2-0.4-0.4-0.6-0.5c-0.3-0.1-0.7-0.2-1-0.2H60v-0.9h0.6c0.3,0,0.6-0.1,0.8-0.2s0.4-0.3,0.6-0.5
						c0.1-0.2,0.2-0.5,0.2-0.7s-0.1-0.5-0.2-0.7c-0.1-0.2-0.3-0.4-0.5-0.5s-0.5-0.2-0.8-0.2s-0.5,0-0.8,0.1
						c-0.2,0.1-0.4,0.2-0.6,0.4c-0.2,0.2-0.2,0.4-0.2,0.7h-0.9c0-0.4,0.1-0.8,0.4-1.1c0.2-0.3,0.6-0.6,0.9-0.7
						c0.4-0.2,0.8-0.3,1.3-0.3c0.4,0,0.9,0.1,1.3,0.3c0.7,0.4,1.1,1.1,1.1,1.9c0,0.4-0.1,0.8-0.4,1.2c-0.2,0.3-0.6,0.6-1,0.7v0.1
						c0.5,0.1,0.9,0.3,1.2,0.6c0.5,0.7,0.6,1.7,0.1,2.4c-0.3,0.4-0.6,0.6-1,0.8C61.7,104.9,61.3,105,60.8,105z M68,105
						c-0.5,0-1.1-0.2-1.5-0.5c-0.5-0.4-0.8-0.9-1-1.4c-0.4-1.5-0.4-3,0-4.5c0.2-0.6,0.5-1,1-1.4c0.9-0.7,2.1-0.7,3,0
						c0.5,0.4,0.8,0.9,1,1.4c0.4,1.5,0.4,3,0,4.5c-0.2,0.6-0.5,1-1,1.4C69.1,104.8,68.6,105,68,105z M68,104.1
						c0.6,0,1.1-0.3,1.4-0.9c0.4-0.7,0.5-1.6,0.5-2.4c0-0.6-0.1-1.2-0.2-1.8c-0.1-0.4-0.3-0.8-0.6-1.1c-0.3-0.3-0.6-0.4-1-0.4
						c-0.6,0-1.1,0.3-1.4,0.9c-0.4,0.8-0.5,1.6-0.5,2.4c0,0.6,0.1,1.2,0.2,1.8c0.1,0.4,0.3,0.8,0.6,1.1
						C67.3,104,67.7,104.1,68,104.1z"/>
				</g>
			</g>
		</g>
	</g>
</g>
<rect x="129.4" y="94.2" class="st1" width="127.2" height="13.3"/>
<g>
	<rect x="129.4" y="94.2" class="st2" width="127.2" height="13.3"/>
	<g>
		<g>
			<g>
				<defs>
					<rect id="SVGID_00000134949971624451812950000013309712296728158911_" x="129.4" y="94.2" width="127.2" height="13.3"/>
				</defs>
				<clipPath id="SVGID_00000003819103406923526520000001479488461205195183_">
					<use xlink:href="#SVGID_00000134949971624451812950000013309712296728158911_"  style="overflow:visible;"/>
				</clipPath>
				<g style="clip-path:url(#SVGID_00000003819103406923526520000001479488461205195183_);">
					<path d="M189.1,105c-0.3,0-0.7-0.1-1-0.2s-0.7-0.3-0.9-0.6c-0.3-0.3-0.5-0.7-0.7-1.2c-0.2-0.6-0.3-1.2-0.2-1.9
						c0-0.6,0.1-1.3,0.2-1.9c0.1-0.5,0.3-1,0.6-1.4c0.2-0.4,0.5-0.7,0.9-0.9c0.4-0.2,0.8-0.3,1.2-0.3s0.8,0.1,1.2,0.3
						c0.3,0.2,0.6,0.4,0.9,0.8c0.2,0.3,0.4,0.7,0.4,1.1h-1c-0.1-0.3-0.3-0.7-0.5-0.9c-0.3-0.2-0.6-0.4-1-0.4c-0.6,0-1.2,0.3-1.5,0.8
						c-0.4,0.7-0.6,1.5-0.5,2.3h0.1c0.1-0.2,0.3-0.4,0.5-0.6s0.4-0.3,0.7-0.4s0.5-0.1,0.8-0.1c0.4,0,0.9,0.1,1.3,0.3
						c0.4,0.2,0.7,0.6,0.9,0.9c0.2,0.4,0.4,0.9,0.4,1.4s-0.1,0.9-0.3,1.4c-0.2,0.4-0.5,0.8-0.9,1C190,104.9,189.6,105,189.1,105z
						 M189.1,104.1c0.3,0,0.6-0.1,0.9-0.2c0.3-0.2,0.5-0.4,0.6-0.7c0.2-0.3,0.2-0.6,0.2-0.9s-0.1-0.6-0.2-0.9
						c-0.1-0.3-0.4-0.5-0.6-0.6c-0.3-0.2-0.6-0.2-0.9-0.2c-0.2,0-0.5,0-0.7,0.1s-0.4,0.2-0.6,0.4c-0.2,0.2-0.3,0.4-0.4,0.6
						c-0.3,0.8,0,1.8,0.7,2.2C188.4,104,188.8,104.1,189.1,104.1z M196.3,105c-0.5,0-1.1-0.2-1.5-0.5c-0.5-0.4-0.8-0.9-1-1.4
						c-0.4-1.5-0.4-3,0-4.5c0.2-0.6,0.5-1,1-1.4c0.9-0.7,2.1-0.7,3,0c0.5,0.4,0.8,0.9,1,1.4c0.4,1.5,0.4,3,0,4.5
						c-0.2,0.5-0.5,1-1,1.4C197.4,104.8,196.9,105,196.3,105z M196.3,104.1c0.6,0,1.1-0.3,1.4-0.9c0.4-0.7,0.5-1.6,0.5-2.4
						c0-0.6-0.1-1.2-0.2-1.8c-0.1-0.4-0.3-0.8-0.6-1.1c-0.3-0.3-0.6-0.4-1-0.4c-0.6,0-1.1,0.3-1.3,0.9c-0.4,0.8-0.5,1.6-0.5,2.4
						c0,0.6,0.1,1.2,0.2,1.8c0.1,0.4,0.3,0.8,0.6,1.1C195.6,104,196,104.1,196.3,104.1z"/>
				</g>
			</g>
		</g>
	</g>
</g>
<rect x="129.1" y="94.2" class="st5" width="0.5" height="13.3"/>
<g>
	<g>
		<defs>
			<rect id="SVGID_00000091719004344234610290000016774019001962921606_" y="107.5" width="129.1" height="13.3"/>
		</defs>
		<clipPath id="SVGID_00000132766464283374039730000004428514973616414113_">
			<use xlink:href="#SVGID_00000091719004344234610290000016774019001962921606_"  style="overflow:visible;"/>
		</clipPath>
		<g style="clip-path:url(#SVGID_00000132766464283374039730000004428514973616414113_);">
			<g>
				<g>
					<defs>
						<rect id="SVGID_00000021831210041119297090000009722850034130971289_" y="107.5" width="129.1" height="13.3"/>
					</defs>
					<clipPath id="SVGID_00000096756788367691851010000003429835858207297192_">
						<use xlink:href="#SVGID_00000021831210041119297090000009722850034130971289_"  style="overflow:visible;"/>
					</clipPath>
					<g style="clip-path:url(#SVGID_00000096756788367691851010000003429835858207297192_);">
						<path d="M58.2,118.2v-0.7l2.6-2.9c0.3-0.3,0.6-0.6,0.8-0.9c0.2-0.2,0.3-0.5,0.4-0.7c0.1-0.2,0.2-0.5,0.1-0.7
							c0-0.3-0.1-0.5-0.2-0.7c-0.1-0.2-0.3-0.4-0.6-0.5c-0.2-0.1-0.5-0.2-0.8-0.2s-0.6,0.1-0.8,0.2s-0.4,0.3-0.5,0.5
							s-0.2,0.5-0.2,0.8h-0.9c0-0.4,0.1-0.9,0.3-1.2c0.2-0.4,0.5-0.6,0.9-0.8c0.4-0.2,0.8-0.3,1.3-0.3c0.4,0,0.9,0.1,1.2,0.3
							c0.3,0.2,0.6,0.5,0.9,0.8c0.2,0.3,0.3,0.7,0.3,1.1c0,0.3-0.1,0.6-0.2,0.9c-0.1,0.3-0.3,0.7-0.6,0.9c-0.3,0.3-0.6,0.8-1.1,1.3
							l-1.8,1.9v0.1H63v0.9L58.2,118.2z M67.8,118.3c-0.5,0-1.1-0.2-1.5-0.5c-0.4-0.4-0.8-0.9-0.9-1.4c-0.4-1.5-0.4-3,0-4.5
							c0.2-0.6,0.5-1,1-1.4c0.9-0.7,2.1-0.7,3,0c0.5,0.4,0.8,0.9,1,1.4c0.4,1.5,0.4,3,0,4.5c-0.2,0.5-0.5,1-0.9,1.4
							C68.9,118.2,68.4,118.3,67.8,118.3z M67.8,117.4c0.6,0,1.1-0.3,1.4-0.9c0.4-0.7,0.5-1.6,0.5-2.4c0-0.6-0.1-1.2-0.2-1.8
							c-0.1-0.4-0.3-0.8-0.6-1.1c-0.3-0.3-0.6-0.4-1-0.4c-0.6,0-1.1,0.3-1.4,0.9c-0.4,0.8-0.5,1.6-0.5,2.4c0,0.6,0.1,1.2,0.2,1.8
							c0.1,0.4,0.3,0.8,0.6,1.1C67.1,117.3,67.4,117.4,67.8,117.4L67.8,117.4z"/>
					</g>
				</g>
			</g>
		</g>
	</g>
</g>
<g>
	<g>
		<defs>
			<rect id="SVGID_00000145739012569840667720000007979711825039376315_" x="129.4" y="107.5" width="127.2" height="13.3"/>
		</defs>
		<clipPath id="SVGID_00000073002126958852081760000005950835677954798745_">
			<use xlink:href="#SVGID_00000145739012569840667720000007979711825039376315_"  style="overflow:visible;"/>
		</clipPath>
		<g style="clip-path:url(#SVGID_00000073002126958852081760000005950835677954798745_);">
			<g>
				<g>
					<defs>
						<rect id="SVGID_00000006695158265898778980000007354311373050372226_" x="129.4" y="107.5" width="127.2" height="13.3"/>
					</defs>
					<clipPath id="SVGID_00000176764664149841241290000006857914831886977925_">
						<use xlink:href="#SVGID_00000006695158265898778980000007354311373050372226_"  style="overflow:visible;"/>
					</clipPath>
					<g style="clip-path:url(#SVGID_00000176764664149841241290000006857914831886977925_);">
						<path d="M187,118.2l3.6-7.1V111h-4.1v-0.9h5.1v0.9l-3.6,7.1L187,118.2z M196,118.3c-0.5,0-1.1-0.2-1.5-0.5
							c-0.4-0.4-0.8-0.9-1-1.4c-0.4-1.5-0.4-3,0-4.5c0.2-0.6,0.5-1,1-1.4c0.9-0.7,2.1-0.7,3,0c0.5,0.4,0.8,0.9,1,1.4
							c0.4,1.5,0.4,3,0,4.5c-0.2,0.5-0.5,1-1,1.4C197.1,118.2,196.6,118.3,196,118.3z M196,117.4c0.6,0,1.1-0.3,1.4-0.9
							c0.4-0.7,0.5-1.6,0.5-2.4c0-0.6-0.1-1.2-0.2-1.8c-0.1-0.4-0.3-0.8-0.6-1.1c-0.3-0.3-0.6-0.4-1-0.4c-0.6,0-1.1,0.3-1.4,0.9
							c-0.4,0.8-0.5,1.6-0.5,2.4c0,0.6,0.1,1.2,0.2,1.8c0.1,0.4,0.3,0.8,0.6,1.1C195.2,117.3,195.6,117.4,196,117.4L196,117.4z"/>
					</g>
				</g>
			</g>
		</g>
	</g>
</g>
<rect x="129.1" y="107.5" class="st5" width="0.5" height="13.3"/>
<rect y="120.8" class="st1" width="129.1" height="13.3"/>
<g>
	<rect y="120.8" class="st2" width="129.1" height="13.3"/>
	<g>
		<g>
			<g>
				<defs>
					<rect id="SVGID_00000155840346945434996620000014495425082806832809_" y="120.8" width="129.1" height="13.3"/>
				</defs>
				<clipPath id="SVGID_00000160176572581698994270000014357355282810798495_">
					<use xlink:href="#SVGID_00000155840346945434996620000014495425082806832809_"  style="overflow:visible;"/>
				</clipPath>
				<g style="clip-path:url(#SVGID_00000160176572581698994270000014357355282810798495_);">
					<path d="M61.9,123.4v8h-1v-7h-0.1l-2,1.3v-1l2-1.3L61.9,123.4z M67.1,131.6c-0.5,0-1.1-0.2-1.5-0.5c-0.5-0.4-0.8-0.9-1-1.4
						c-0.4-1.5-0.4-3,0-4.5c0.2-0.6,0.5-1,1-1.4c0.9-0.7,2.1-0.7,3,0c0.5,0.4,0.8,0.9,1,1.4c0.4,1.5,0.4,3,0,4.5
						c-0.2,0.5-0.5,1-0.9,1.4C68.2,131.4,67.6,131.6,67.1,131.6L67.1,131.6z M67.1,130.7c0.6,0,1.1-0.3,1.4-0.9
						c0.4-0.7,0.5-1.6,0.5-2.4c0-0.6-0.1-1.2-0.2-1.8c-0.1-0.4-0.3-0.8-0.6-1.1c-0.3-0.3-0.6-0.4-1-0.4c-0.6,0-1.1,0.3-1.4,0.9
						c-0.4,0.8-0.5,1.6-0.5,2.4c0,0.6,0.1,1.2,0.2,1.8c0.1,0.4,0.3,0.8,0.6,1.1C66.3,130.6,66.7,130.7,67.1,130.7L67.1,130.7z"/>
				</g>
			</g>
		</g>
	</g>
</g>
<rect x="129.4" y="120.8" class="st1" width="127.2" height="13.3"/>
<g>
	<rect x="129.4" y="120.8" class="st2" width="127.2" height="13.3"/>
	<g>
		<g>
			<g>
				<defs>
					<rect id="SVGID_00000036961921687641861890000013766468109451265709_" x="129.4" y="120.8" width="127.2" height="13.3"/>
				</defs>
				<clipPath id="SVGID_00000071533887862912538480000015986760295928081286_">
					<use xlink:href="#SVGID_00000036961921687641861890000013766468109451265709_"  style="overflow:visible;"/>
				</clipPath>
				<g style="clip-path:url(#SVGID_00000071533887862912538480000015986760295928081286_);">
					<path d="M189,131.6c-0.5,0-1-0.1-1.4-0.3s-0.7-0.4-1-0.8c-0.2-0.3-0.4-0.7-0.4-1.2c0-0.3,0.1-0.7,0.2-1
						c0.1-0.3,0.3-0.5,0.6-0.7c0.2-0.2,0.5-0.3,0.8-0.4l0,0c-0.4-0.1-0.7-0.3-0.9-0.6c-0.4-0.7-0.4-1.5,0-2.2
						c0.2-0.3,0.5-0.6,0.9-0.8c0.4-0.2,0.8-0.3,1.2-0.3s0.9,0.1,1.2,0.3c0.3,0.2,0.6,0.4,0.9,0.8c0.2,0.3,0.3,0.7,0.3,1.1
						s-0.1,0.8-0.3,1.1c-0.2,0.3-0.5,0.6-0.9,0.6l0,0c0.3,0,0.6,0.2,0.8,0.4c0.2,0.2,0.4,0.4,0.6,0.7c0.1,0.3,0.2,0.7,0.2,1
						c0,0.4-0.1,0.8-0.4,1.2c-0.3,0.4-0.6,0.6-1,0.8C189.9,131.5,189.5,131.6,189,131.6z M189,130.8c0.3,0,0.6-0.1,0.9-0.2
						c0.3-0.1,0.5-0.3,0.6-0.5s0.2-0.5,0.2-0.8s-0.1-0.6-0.2-0.8c-0.2-0.2-0.4-0.4-0.6-0.6c-0.3-0.1-0.6-0.2-0.9-0.2
						c-0.3,0-0.6,0.1-0.9,0.2c-0.3,0.1-0.5,0.3-0.6,0.6c-0.2,0.2-0.2,0.5-0.2,0.8s0.1,0.5,0.2,0.8c0.2,0.2,0.4,0.4,0.6,0.5
						C188.3,130.7,188.7,130.8,189,130.8z M189,126.9c0.3,0,0.5-0.1,0.8-0.2c0.2-0.1,0.4-0.3,0.5-0.5s0.2-0.5,0.2-0.7
						c0-0.3-0.1-0.5-0.2-0.7c-0.1-0.2-0.3-0.4-0.5-0.5s-0.5-0.2-0.8-0.2s-0.5,0-0.8,0.2c-0.4,0.2-0.7,0.7-0.7,1.2
						c0,0.3,0.1,0.5,0.2,0.7c0.1,0.2,0.3,0.4,0.5,0.5C188.4,126.9,188.7,126.9,189,126.9z M196.3,131.6c-0.5,0-1.1-0.2-1.5-0.5
						c-0.5-0.4-0.8-0.9-1-1.4c-0.4-1.5-0.4-3,0-4.5c0.2-0.6,0.5-1,1-1.4c0.9-0.7,2.1-0.7,3,0c0.5,0.4,0.8,0.9,1,1.4
						c0.4,1.5,0.4,3,0,4.5c-0.2,0.5-0.5,1-1,1.4C197.4,131.5,196.9,131.6,196.3,131.6L196.3,131.6z M196.3,130.8
						c0.6,0,1.1-0.3,1.4-0.9c0.4-0.7,0.5-1.6,0.5-2.4c0-0.6-0.1-1.2-0.2-1.8c-0.1-0.4-0.3-0.8-0.6-1.1c-0.3-0.3-0.6-0.4-1-0.4
						c-0.6,0-1.1,0.3-1.4,0.9c-0.4,0.8-0.5,1.6-0.5,2.4c0,0.6,0.1,1.2,0.2,1.8c0.1,0.4,0.3,0.8,0.6,1.1
						C195.6,130.6,196,130.8,196.3,130.8L196.3,130.8z"/>
				</g>
			</g>
		</g>
	</g>
</g>
<rect x="129.1" y="120.8" class="st5" width="0.5" height="13.3"/>
<g>
	<g>
		<defs>
			<rect id="SVGID_00000171677658125342596360000008946772488075800488_" y="134.1" width="129.1" height="13.2"/>
		</defs>
		<clipPath id="SVGID_00000093151768875762760160000011455203353477935248_">
			<use xlink:href="#SVGID_00000171677658125342596360000008946772488075800488_"  style="overflow:visible;"/>
		</clipPath>
		<g style="clip-path:url(#SVGID_00000093151768875762760160000011455203353477935248_);">
			<g>
				<g>
					<defs>
						<rect id="SVGID_00000150814035493568650510000004775467236867218824_" y="134.1" width="129.1" height="13.2"/>
					</defs>
					<clipPath id="SVGID_00000096041732337607283110000001666563646912548777_">
						<use xlink:href="#SVGID_00000150814035493568650510000004775467236867218824_"  style="overflow:visible;"/>
					</clipPath>
					<g style="clip-path:url(#SVGID_00000096041732337607283110000001666563646912548777_);">
						<path d="M64.3,144.8c-0.5,0-1.1-0.2-1.5-0.5c-0.5-0.4-0.8-0.9-1-1.4c-0.4-1.5-0.4-3,0-4.5c0.2-0.6,0.5-1,1-1.4
							c0.9-0.7,2.1-0.7,3,0c0.5,0.4,0.8,0.9,1,1.4c0.4,1.5,0.4,3,0,4.5c-0.2,0.6-0.5,1-1,1.4C65.4,144.7,64.9,144.8,64.3,144.8z
							 M64.3,143.9c0.6,0,1.1-0.3,1.4-0.9c0.4-0.7,0.5-1.6,0.5-2.4c0-0.6-0.1-1.2-0.2-1.8c-0.1-0.4-0.3-0.8-0.6-1.1
							c-0.3-0.3-0.6-0.4-1-0.4c-0.6,0-1.1,0.3-1.4,0.9c-0.4,0.8-0.5,1.6-0.5,2.4c0,0.6,0.1,1.2,0.2,1.8c0.1,0.4,0.3,0.8,0.6,1.1
							C63.6,143.8,63.9,144,64.3,143.9z"/>
					</g>
				</g>
			</g>
		</g>
	</g>
</g>
<g>
	<g>
		<defs>
			<rect id="SVGID_00000075122688324894615040000014313957139592582315_" x="129.4" y="134.1" width="127.2" height="13.2"/>
		</defs>
		<clipPath id="SVGID_00000034800417734623673380000004460846257477402292_">
			<use xlink:href="#SVGID_00000075122688324894615040000014313957139592582315_"  style="overflow:visible;"/>
		</clipPath>
		<g style="clip-path:url(#SVGID_00000034800417734623673380000004460846257477402292_);">
			<g>
				<g>
					<defs>
						<rect id="SVGID_00000155107895784094625580000004227445620656294025_" x="129.4" y="134.1" width="127.2" height="13.2"/>
					</defs>
					<clipPath id="SVGID_00000127043966075132444610000005779754043030613633_">
						<use xlink:href="#SVGID_00000155107895784094625580000004227445620656294025_"  style="overflow:visible;"/>
					</clipPath>
					<g style="clip-path:url(#SVGID_00000127043966075132444610000005779754043030613633_);">
						<path d="M189,136.6c0.3,0,0.7,0.1,1,0.2c0.3,0.1,0.6,0.3,0.9,0.6c0.3,0.3,0.5,0.7,0.6,1.2c0.2,0.6,0.3,1.2,0.2,1.8
							c0,0.6-0.1,1.3-0.2,1.9c-0.1,0.5-0.3,1-0.6,1.4c-0.2,0.4-0.5,0.7-0.9,0.9c-0.8,0.4-1.7,0.4-2.4,0c-0.3-0.2-0.6-0.4-0.9-0.8
							c-0.2-0.3-0.4-0.7-0.4-1.1h1c0.1,0.3,0.3,0.7,0.5,0.9c0.3,0.2,0.6,0.4,1,0.4c0.6,0,1.2-0.3,1.5-0.8c0.4-0.7,0.6-1.5,0.5-2.3
							h-0.1c-0.1,0.2-0.3,0.4-0.5,0.6c-0.2,0.2-0.4,0.3-0.7,0.4c-0.2,0.1-0.5,0.1-0.8,0.1c-0.4,0-0.9-0.1-1.3-0.3
							c-0.4-0.2-0.7-0.6-0.9-0.9c-0.2-0.4-0.4-0.9-0.3-1.4c0-0.5,0.1-0.9,0.3-1.4c0.2-0.4,0.5-0.8,0.9-1
							C188,136.6,188.5,136.5,189,136.6z M189,137.4c-0.3,0-0.6,0.1-0.9,0.2c-0.3,0.2-0.5,0.4-0.6,0.7c-0.2,0.3-0.2,0.6-0.2,0.9
							c0,0.3,0.1,0.6,0.2,0.9c0.1,0.3,0.4,0.5,0.6,0.7c0.5,0.3,1.1,0.3,1.6,0.1c0.2-0.1,0.4-0.2,0.6-0.4c0.2-0.2,0.3-0.4,0.4-0.6
							c0.1-0.2,0.1-0.4,0.1-0.7s-0.1-0.6-0.2-0.9c-0.1-0.3-0.4-0.5-0.6-0.7C189.6,137.5,189.3,137.4,189,137.4L189,137.4z
							 M196.4,144.8c-0.5,0-1.1-0.2-1.5-0.5c-0.5-0.4-0.8-0.9-1-1.4c-0.4-1.5-0.4-3,0-4.5c0.2-0.6,0.5-1,1-1.4c0.9-0.7,2.1-0.7,3,0
							c0.5,0.4,0.8,0.9,1,1.4c0.4,1.5,0.4,3,0,4.5c-0.2,0.5-0.5,1-1,1.4C197.5,144.7,196.9,144.8,196.4,144.8L196.4,144.8z
							 M196.4,143.9c0.6,0,1.1-0.3,1.4-0.9c0.4-0.7,0.5-1.6,0.5-2.4c0-0.6-0.1-1.2-0.2-1.8c-0.1-0.4-0.3-0.8-0.6-1.1s-0.6-0.4-1-0.4
							c-0.6,0-1.1,0.3-1.4,0.9c-0.4,0.8-0.5,1.6-0.5,2.4c0,0.6,0.1,1.2,0.2,1.8c0.1,0.4,0.3,0.8,0.6,1.1
							C195.6,143.8,196,144,196.4,143.9L196.4,143.9z"/>
					</g>
				</g>
			</g>
		</g>
	</g>
</g>
<rect x="129.1" y="134.1" class="st5" width="0.5" height="13.2"/>
<text transform="matrix(1 0 0 1 960 540)" style="font-family:'MyriadPro-Regular'; font-size:12px;">U </text>
</svg>
